<svg width="332" height="117" viewBox="0 0 332 117" fill="none" xmlns="http://www.w3.org/2000/svg">
<path d="M-214 50.0967C-192.889 21.8913 -171.778 -6.31411 -150.667 1.24388C-129.556 8.80188 -108.444 52.1217 -87.3333 50.0967C-66.2222 48.0716 -45.1111 0.701777 -24 1.24388C-2.88889 1.78599 18.2222 50.2416 39.3333 50.0967C60.4444 49.9517 81.5555 1.20764 102.667 1.24388C123.778 1.28013 144.889 50.0967 166 50.0967C187.111 50.0967 208.222 1.28013 229.333 1.24388C250.444 1.20764 271.556 49.9517 292.667 50.0967C313.778 50.2416 334.889 1.78599 356 1.24388C377.111 0.701777 398.222 48.0716 419.333 50.0967C440.444 52.1217 461.556 8.80188 482.667 1.24388C503.778 -6.31411 524.889 21.8913 546 50.0967V138.032C524.889 138.032 503.778 138.032 482.667 138.032C461.556 138.032 440.444 138.032 419.333 138.032C398.222 138.032 377.111 138.032 356 138.032C334.889 138.032 313.778 138.032 292.667 138.032C271.556 138.032 250.444 138.032 229.333 138.032C208.222 138.032 187.111 138.032 166 138.032C144.889 138.032 123.778 138.032 102.667 138.032C81.5555 138.032 60.4444 138.032 39.3333 138.032C18.2222 138.032 -2.88889 138.032 -24 138.032C-45.1111 138.032 -66.2222 138.032 -87.3333 138.032C-108.444 138.032 -129.556 138.032 -150.667 138.032C-171.778 138.032 -192.889 138.032 -214 138.032V50.0967Z" fill="#2F80ED" fill-opacity="0.15"/>
<path d="M-214 57.4248C-192.889 29.2194 -171.778 1.01401 -150.667 8.57201C-129.556 16.13 -108.444 59.4498 -87.3333 57.4248C-66.2222 55.3998 -45.1111 8.0299 -24 8.57201C-2.88889 9.11412 18.2222 57.5698 39.3333 57.4248C60.4444 57.2798 81.5555 8.53576 102.667 8.57201C123.778 8.60826 144.889 57.4248 166 57.4248C187.111 57.4248 208.222 8.60826 229.333 8.57201C250.444 8.53576 271.556 57.2798 292.667 57.4248C313.778 57.5698 334.889 9.11412 356 8.57201C377.111 8.0299 398.222 55.3998 419.333 57.4248C440.444 59.4498 461.556 16.13 482.667 8.57201C503.778 1.01401 524.889 29.2194 546 57.4248V138.032C524.889 138.032 503.778 138.032 482.667 138.032C461.556 138.032 440.444 138.032 419.333 138.032C398.222 138.032 377.111 138.032 356 138.032C334.889 138.032 313.778 138.032 292.667 138.032C271.556 138.032 250.444 138.032 229.333 138.032C208.222 138.032 187.111 138.032 166 138.032C144.889 138.032 123.778 138.032 102.667 138.032C81.5555 138.032 60.4444 138.032 39.3333 138.032C18.2222 138.032 -2.88889 138.032 -24 138.032C-45.1111 138.032 -66.2222 138.032 -87.3333 138.032C-108.444 138.032 -129.556 138.032 -150.667 138.032C-171.778 138.032 -192.889 138.032 -214 138.032V57.4248Z" fill="#2F80ED" fill-opacity="0.15"/>
<path d="M-214 67.1988C-192.889 37.583 -171.778 7.96877 -150.667 15.9034C-129.556 23.838 -108.444 69.3247 -87.3333 67.1988C-66.2222 65.0729 -45.1111 15.3345 -24 15.9034C-2.88889 16.4723 18.2222 67.3501 39.3333 67.1988C60.4444 67.0475 81.5555 15.8656 102.667 15.9034C123.778 15.9412 144.889 67.1988 166 67.1988C187.111 67.1988 208.222 15.9412 229.333 15.9034C250.444 15.8656 271.556 67.0475 292.667 67.1988C313.778 67.3501 334.889 16.4723 356 15.9034C377.111 15.3345 398.222 65.0729 419.333 67.1988C440.444 69.3247 461.556 23.838 482.667 15.9034C503.778 7.96877 524.889 37.583 546 67.1988V138.035C524.889 138.035 503.778 138.035 482.667 138.035C461.556 138.035 440.444 138.035 419.333 138.035C398.222 138.035 377.111 138.035 356 138.035C334.889 138.035 313.778 138.035 292.667 138.035C271.556 138.035 250.444 138.035 229.333 138.035C208.222 138.035 187.111 138.035 166 138.035C144.889 138.035 123.778 138.035 102.667 138.035C81.5555 138.035 60.4444 138.035 39.3333 138.035C18.2222 138.035 -2.88889 138.035 -24 138.035C-45.1111 138.035 -66.2222 138.035 -87.3333 138.035C-108.444 138.035 -129.556 138.035 -150.667 138.035C-171.778 138.035 -192.889 138.035 -214 138.035V67.1988Z" fill="#2F80ED" fill-opacity="0.15"/>
<path d="M-214 74.5244C-192.889 46.319 -171.778 18.1136 -150.667 25.6716C-129.556 33.2296 -108.444 76.5494 -87.3333 74.5244C-66.2222 72.4994 -45.1111 25.1295 -24 25.6716C-2.88889 26.2137 18.2222 74.6694 39.3333 74.5244C60.4444 74.3794 81.5555 25.6354 102.667 25.6716C123.778 25.7079 144.889 74.5244 166 74.5244C187.111 74.5244 208.222 25.7079 229.333 25.6716C250.444 25.6354 271.556 74.3794 292.667 74.5244C313.778 74.6694 334.889 26.2137 356 25.6716C377.111 25.1295 398.222 72.4994 419.333 74.5244C440.444 76.5494 461.556 33.2296 482.667 25.6716C503.778 18.1136 524.889 46.319 546 74.5244V138.033C524.889 138.033 503.778 138.033 482.667 138.033C461.556 138.033 440.444 138.033 419.333 138.033C398.222 138.033 377.111 138.033 356 138.033C334.889 138.033 313.778 138.033 292.667 138.033C271.556 138.033 250.444 138.033 229.333 138.033C208.222 138.033 187.111 138.033 166 138.033C144.889 138.033 123.778 138.033 102.667 138.033C81.5555 138.033 60.4444 138.033 39.3333 138.033C18.2222 138.033 -2.88889 138.033 -24 138.033C-45.1111 138.033 -66.2222 138.033 -87.3333 138.033C-108.444 138.033 -129.556 138.033 -150.667 138.033C-171.778 138.033 -192.889 138.033 -214 138.033V74.5244Z" fill="#2F80ED" fill-opacity="0.15"/>
<path d="M-214 81.8506C-192.889 53.6452 -171.778 25.4398 -150.667 32.9978C-129.556 40.5558 -108.444 83.8756 -87.3333 81.8506C-66.2222 79.8255 -45.1111 32.4557 -24 32.9978C-2.88889 33.5399 18.2222 81.9955 39.3333 81.8506C60.4444 81.7056 81.5555 32.9615 102.667 32.9978C123.778 33.034 144.889 81.8506 166 81.8506C187.111 81.8506 208.222 33.034 229.333 32.9978C250.444 32.9615 271.556 81.7056 292.667 81.8506C313.778 81.9955 334.889 33.5399 356 32.9978C377.111 32.4557 398.222 79.8255 419.333 81.8506C440.444 83.8756 461.556 40.5558 482.667 32.9978C503.778 25.4398 524.889 53.6452 546 81.8506V138.031C524.889 138.031 503.778 138.031 482.667 138.031C461.556 138.031 440.444 138.031 419.333 138.031C398.222 138.031 377.111 138.031 356 138.031C334.889 138.031 313.778 138.031 292.667 138.031C271.556 138.031 250.444 138.031 229.333 138.031C208.222 138.031 187.111 138.031 166 138.031C144.889 138.031 123.778 138.031 102.667 138.031C81.5555 138.031 60.4444 138.031 39.3333 138.031C18.2222 138.031 -2.88889 138.031 -24 138.031C-45.1111 138.031 -66.2222 138.031 -87.3333 138.031C-108.444 138.031 -129.556 138.031 -150.667 138.031C-171.778 138.031 -192.889 138.031 -214 138.031V81.8506Z" fill="#2F80ED" fill-opacity="0.15"/>
<path d="M-214 91.6226C-192.889 62.0068 -171.778 32.3926 -150.667 40.3272C-129.556 48.2619 -108.444 93.7485 -87.3333 91.6226C-66.2222 89.4968 -45.1111 39.7583 -24 40.3272C-2.88889 40.8961 18.2222 91.7739 39.3333 91.6226C60.4444 91.4714 81.5555 40.2894 102.667 40.3272C123.778 40.3651 144.889 91.6226 166 91.6226C187.111 91.6226 208.222 40.3651 229.333 40.3272C250.444 40.2894 271.556 91.4714 292.667 91.6226C313.778 91.7739 334.889 40.8961 356 40.3272C377.111 39.7583 398.222 89.4968 419.333 91.6226C440.444 93.7485 461.556 48.2619 482.667 40.3272C503.778 32.3926 524.889 62.0068 546 91.6226V138.033C524.889 138.033 503.778 138.033 482.667 138.033C461.556 138.033 440.444 138.033 419.333 138.033C398.222 138.033 377.111 138.033 356 138.033C334.889 138.033 313.778 138.033 292.667 138.033C271.556 138.033 250.444 138.033 229.333 138.033C208.222 138.033 187.111 138.033 166 138.033C144.889 138.033 123.778 138.033 102.667 138.033C81.5555 138.033 60.4444 138.033 39.3333 138.033C18.2222 138.033 -2.88889 138.033 -24 138.033C-45.1111 138.033 -66.2222 138.033 -87.3333 138.033C-108.444 138.033 -129.556 138.033 -150.667 138.033C-171.778 138.033 -192.889 138.033 -214 138.033V91.6226Z" fill="#2F80ED" fill-opacity="0.15"/>
<path d="M-214 98.9502C-192.889 70.7448 -171.778 42.5394 -150.667 50.0974C-129.556 57.6554 -108.444 100.975 -87.3333 98.9502C-66.2222 96.9251 -45.1111 49.5553 -24 50.0974C-2.88889 50.6395 18.2222 99.0952 39.3333 98.9502C60.4444 98.8052 81.5555 50.0612 102.667 50.0974C123.778 50.1336 144.889 98.9502 166 98.9502C187.111 98.9502 208.222 50.1336 229.333 50.0974C250.444 50.0612 271.556 98.8052 292.667 98.9502C313.778 99.0952 334.889 50.6395 356 50.0974C377.111 49.5553 398.222 96.9251 419.333 98.9502C440.444 100.975 461.556 57.6554 482.667 50.0974C503.778 42.5394 524.889 70.7448 546 98.9502V138.032C524.889 138.032 503.778 138.032 482.667 138.032C461.556 138.032 440.444 138.032 419.333 138.032C398.222 138.032 377.111 138.032 356 138.032C334.889 138.032 313.778 138.032 292.667 138.032C271.556 138.032 250.444 138.032 229.333 138.032C208.222 138.032 187.111 138.032 166 138.032C144.889 138.032 123.778 138.032 102.667 138.032C81.5555 138.032 60.4444 138.032 39.3333 138.032C18.2222 138.032 -2.88889 138.032 -24 138.032C-45.1111 138.032 -66.2222 138.032 -87.3333 138.032C-108.444 138.032 -129.556 138.032 -150.667 138.032C-171.778 138.032 -192.889 138.032 -214 138.032V98.9502Z" fill="#2F80ED" fill-opacity="0.15"/>
<path d="M-214 106.276C-192.889 78.071 -171.778 49.8656 -150.667 57.4236C-129.556 64.9816 -108.444 108.301 -87.3333 106.276C-66.2222 104.251 -45.1111 56.8815 -24 57.4236C-2.88889 57.9657 18.2222 106.421 39.3333 106.276C60.4444 106.131 81.5555 57.3873 102.667 57.4236C123.778 57.4598 144.889 106.276 166 106.276C187.111 106.276 208.222 57.4598 229.333 57.4236C250.444 57.3873 271.556 106.131 292.667 106.276C313.778 106.421 334.889 57.9657 356 57.4236C377.111 56.8815 398.222 104.251 419.333 106.276C440.444 108.301 461.556 64.9816 482.667 57.4236C503.778 49.8656 524.889 78.071 546 106.276V138.031C524.889 138.031 503.778 138.031 482.667 138.031C461.556 138.031 440.444 138.031 419.333 138.031C398.222 138.031 377.111 138.031 356 138.031C334.889 138.031 313.778 138.031 292.667 138.031C271.556 138.031 250.444 138.031 229.333 138.031C208.222 138.031 187.111 138.031 166 138.031C144.889 138.031 123.778 138.031 102.667 138.031C81.5555 138.031 60.4444 138.031 39.3333 138.031C18.2222 138.031 -2.88889 138.031 -24 138.031C-45.1111 138.031 -66.2222 138.031 -87.3333 138.031C-108.444 138.031 -129.556 138.031 -150.667 138.031C-171.778 138.031 -192.889 138.031 -214 138.031V106.276Z" fill="#2F80ED" fill-opacity="0.15"/>
<path d="M-214 113.606C-192.889 85.401 -171.778 57.1957 -150.667 64.7537C-129.556 72.3116 -108.444 115.631 -87.3333 113.606C-66.2222 111.581 -45.1111 64.2115 -24 64.7537C-2.88889 65.2958 18.2222 113.751 39.3333 113.606C60.4444 113.461 81.5555 64.7174 102.667 64.7537C123.778 64.7899 144.889 113.606 166 113.606C187.111 113.606 208.222 64.7899 229.333 64.7537C250.444 64.7174 271.556 113.461 292.667 113.606C313.778 113.751 334.889 65.2958 356 64.7537C377.111 64.2115 398.222 111.581 419.333 113.606C440.444 115.631 461.556 72.3116 482.667 64.7537C503.778 57.1957 524.889 85.401 546 113.606V138.033C524.889 138.033 503.778 138.033 482.667 138.033C461.556 138.033 440.444 138.033 419.333 138.033C398.222 138.033 377.111 138.033 356 138.033C334.889 138.033 313.778 138.033 292.667 138.033C271.556 138.033 250.444 138.033 229.333 138.033C208.222 138.033 187.111 138.033 166 138.033C144.889 138.033 123.778 138.033 102.667 138.033C81.5555 138.033 60.4444 138.033 39.3333 138.033C18.2222 138.033 -2.88889 138.033 -24 138.033C-45.1111 138.033 -66.2222 138.033 -87.3333 138.033C-108.444 138.033 -129.556 138.033 -150.667 138.033C-171.778 138.033 -192.889 138.033 -214 138.033V113.606Z" fill="#2F80ED" fill-opacity="0.15"/>
<path d="M-214 123.373C-192.889 93.7568 -171.778 64.1426 -150.667 72.0772C-129.556 80.0119 -108.444 125.499 -87.3333 123.373C-66.2222 121.247 -45.1111 71.5083 -24 72.0772C-2.88889 72.6461 18.2222 123.524 39.3333 123.373C60.4444 123.221 81.5555 72.0394 102.667 72.0772C123.778 72.1151 144.889 123.373 166 123.373C187.111 123.373 208.222 72.1151 229.333 72.0772C250.444 72.0394 271.556 123.221 292.667 123.373C313.778 123.524 334.889 72.6461 356 72.0772C377.111 71.5083 398.222 121.247 419.333 123.373C440.444 125.499 461.556 80.0119 482.667 72.0772C503.778 64.1426 524.889 93.7568 546 123.373V138.028C524.889 138.028 503.778 138.028 482.667 138.028C461.556 138.028 440.444 138.028 419.333 138.028C398.222 138.028 377.111 138.028 356 138.028C334.889 138.028 313.778 138.028 292.667 138.028C271.556 138.028 250.444 138.028 229.333 138.028C208.222 138.028 187.111 138.028 166 138.028C144.889 138.028 123.778 138.028 102.667 138.028C81.5555 138.028 60.4444 138.028 39.3333 138.028C18.2222 138.028 -2.88889 138.028 -24 138.028C-45.1111 138.028 -66.2222 138.028 -87.3333 138.028C-108.444 138.028 -129.556 138.028 -150.667 138.028C-171.778 138.028 -192.889 138.028 -214 138.028V123.373Z" fill="#2F80ED" fill-opacity="0.15"/>
</svg>
