<svg width="333" height="117" viewBox="0 0 333 117" fill="none" xmlns="http://www.w3.org/2000/svg">
<path d="M-486 50.0967C-428.389 21.8913 -370.778 -6.31411 -313.167 1.24388C-255.556 8.80188 -197.944 52.1217 -140.333 50.0967C-82.7222 48.0716 -25.1111 0.701777 32.5 1.24388C90.1111 1.78599 147.722 50.2416 205.333 50.0967C262.944 49.9517 320.556 1.20764 378.167 1.24388C435.778 1.28013 493.389 50.0967 551 50.0967C608.611 50.0967 666.222 1.28013 723.833 1.24388C781.444 1.20764 839.056 49.9517 896.667 50.0967C954.278 50.2416 1011.89 1.78599 1069.5 1.24388C1127.11 0.701777 1184.72 48.0716 1242.33 50.0967C1299.94 52.1217 1357.56 8.80188 1415.17 1.24388C1472.78 -6.31411 1530.39 21.8913 1588 50.0967V138.032C1530.39 138.032 1472.78 138.032 1415.17 138.032C1357.56 138.032 1299.94 138.032 1242.33 138.032C1184.72 138.032 1127.11 138.032 1069.5 138.032C1011.89 138.032 954.278 138.032 896.667 138.032C839.056 138.032 781.444 138.032 723.833 138.032C666.222 138.032 608.611 138.032 551 138.032C493.389 138.032 435.778 138.032 378.167 138.032C320.556 138.032 262.944 138.032 205.333 138.032C147.722 138.032 90.1111 138.032 32.5 138.032C-25.1111 138.032 -82.7222 138.032 -140.333 138.032C-197.944 138.032 -255.556 138.032 -313.167 138.032C-370.778 138.032 -428.389 138.032 -486 138.032V50.0967Z" fill="#2F80ED" fill-opacity="0.15"/>
<path d="M-486 57.4248C-428.389 29.2194 -370.778 1.01401 -313.167 8.57201C-255.556 16.13 -197.944 59.4498 -140.333 57.4248C-82.7222 55.3998 -25.1111 8.0299 32.5 8.57201C90.1111 9.11412 147.722 57.5698 205.333 57.4248C262.944 57.2798 320.556 8.53576 378.167 8.57201C435.778 8.60826 493.389 57.4248 551 57.4248C608.611 57.4248 666.222 8.60826 723.833 8.57201C781.444 8.53576 839.056 57.2798 896.667 57.4248C954.278 57.5698 1011.89 9.11412 1069.5 8.57201C1127.11 8.0299 1184.72 55.3998 1242.33 57.4248C1299.94 59.4498 1357.56 16.13 1415.17 8.57201C1472.78 1.01401 1530.39 29.2194 1588 57.4248V138.032C1530.39 138.032 1472.78 138.032 1415.17 138.032C1357.56 138.032 1299.94 138.032 1242.33 138.032C1184.72 138.032 1127.11 138.032 1069.5 138.032C1011.89 138.032 954.278 138.032 896.667 138.032C839.056 138.032 781.444 138.032 723.833 138.032C666.222 138.032 608.611 138.032 551 138.032C493.389 138.032 435.778 138.032 378.167 138.032C320.556 138.032 262.944 138.032 205.333 138.032C147.722 138.032 90.1111 138.032 32.5 138.032C-25.1111 138.032 -82.7222 138.032 -140.333 138.032C-197.944 138.032 -255.556 138.032 -313.167 138.032C-370.778 138.032 -428.389 138.032 -486 138.032V57.4248Z" fill="#2F80ED" fill-opacity="0.15"/>
<path d="M-486 67.1988C-428.389 37.583 -370.778 7.96877 -313.167 15.9034C-255.556 23.838 -197.944 69.3247 -140.333 67.1988C-82.7222 65.0729 -25.1111 15.3345 32.5 15.9034C90.1111 16.4723 147.722 67.3501 205.333 67.1988C262.944 67.0475 320.556 15.8656 378.167 15.9034C435.778 15.9412 493.389 67.1988 551 67.1988C608.611 67.1988 666.222 15.9412 723.833 15.9034C781.444 15.8656 839.056 67.0475 896.667 67.1988C954.278 67.3501 1011.89 16.4723 1069.5 15.9034C1127.11 15.3345 1184.72 65.0729 1242.33 67.1988C1299.94 69.3247 1357.56 23.838 1415.17 15.9034C1472.78 7.96877 1530.39 37.583 1588 67.1988V138.035C1530.39 138.035 1472.78 138.035 1415.17 138.035C1357.56 138.035 1299.94 138.035 1242.33 138.035C1184.72 138.035 1127.11 138.035 1069.5 138.035C1011.89 138.035 954.278 138.035 896.667 138.035C839.056 138.035 781.444 138.035 723.833 138.035C666.222 138.035 608.611 138.035 551 138.035C493.389 138.035 435.778 138.035 378.167 138.035C320.556 138.035 262.944 138.035 205.333 138.035C147.722 138.035 90.1111 138.035 32.5 138.035C-25.1111 138.035 -82.7222 138.035 -140.333 138.035C-197.944 138.035 -255.556 138.035 -313.167 138.035C-370.778 138.035 -428.389 138.035 -486 138.035V67.1988Z" fill="#2F80ED" fill-opacity="0.15"/>
<path d="M-486 74.5244C-428.389 46.319 -370.778 18.1136 -313.167 25.6716C-255.556 33.2296 -197.944 76.5494 -140.333 74.5244C-82.7222 72.4994 -25.1111 25.1295 32.5 25.6716C90.1111 26.2137 147.722 74.6694 205.333 74.5244C262.944 74.3794 320.556 25.6354 378.167 25.6716C435.778 25.7079 493.389 74.5244 551 74.5244C608.611 74.5244 666.222 25.7079 723.833 25.6716C781.444 25.6354 839.056 74.3794 896.667 74.5244C954.278 74.6694 1011.89 26.2137 1069.5 25.6716C1127.11 25.1295 1184.72 72.4994 1242.33 74.5244C1299.94 76.5494 1357.56 33.2296 1415.17 25.6716C1472.78 18.1136 1530.39 46.319 1588 74.5244V138.033C1530.39 138.033 1472.78 138.033 1415.17 138.033C1357.56 138.033 1299.94 138.033 1242.33 138.033C1184.72 138.033 1127.11 138.033 1069.5 138.033C1011.89 138.033 954.278 138.033 896.667 138.033C839.056 138.033 781.444 138.033 723.833 138.033C666.222 138.033 608.611 138.033 551 138.033C493.389 138.033 435.778 138.033 378.167 138.033C320.556 138.033 262.944 138.033 205.333 138.033C147.722 138.033 90.1111 138.033 32.5 138.033C-25.1111 138.033 -82.7222 138.033 -140.333 138.033C-197.944 138.033 -255.556 138.033 -313.167 138.033C-370.778 138.033 -428.389 138.033 -486 138.033V74.5244Z" fill="#2F80ED" fill-opacity="0.15"/>
<path d="M-486 81.8506C-428.389 53.6452 -370.778 25.4398 -313.167 32.9978C-255.556 40.5558 -197.944 83.8756 -140.333 81.8506C-82.7222 79.8255 -25.1111 32.4557 32.5 32.9978C90.1111 33.5399 147.722 81.9955 205.333 81.8506C262.944 81.7056 320.556 32.9615 378.167 32.9978C435.778 33.034 493.389 81.8506 551 81.8506C608.611 81.8506 666.222 33.034 723.833 32.9978C781.444 32.9615 839.056 81.7056 896.667 81.8506C954.278 81.9955 1011.89 33.5399 1069.5 32.9978C1127.11 32.4557 1184.72 79.8255 1242.33 81.8506C1299.94 83.8756 1357.56 40.5558 1415.17 32.9978C1472.78 25.4398 1530.39 53.6452 1588 81.8506V138.031C1530.39 138.031 1472.78 138.031 1415.17 138.031C1357.56 138.031 1299.94 138.031 1242.33 138.031C1184.72 138.031 1127.11 138.031 1069.5 138.031C1011.89 138.031 954.278 138.031 896.667 138.031C839.056 138.031 781.444 138.031 723.833 138.031C666.222 138.031 608.611 138.031 551 138.031C493.389 138.031 435.778 138.031 378.167 138.031C320.556 138.031 262.944 138.031 205.333 138.031C147.722 138.031 90.1111 138.031 32.5 138.031C-25.1111 138.031 -82.7222 138.031 -140.333 138.031C-197.944 138.031 -255.556 138.031 -313.167 138.031C-370.778 138.031 -428.389 138.031 -486 138.031V81.8506Z" fill="#2F80ED" fill-opacity="0.15"/>
<path d="M-486 91.6226C-428.389 62.0068 -370.778 32.3926 -313.167 40.3272C-255.556 48.2619 -197.944 93.7485 -140.333 91.6226C-82.7222 89.4968 -25.1111 39.7583 32.5 40.3272C90.1111 40.8961 147.722 91.7739 205.333 91.6226C262.944 91.4714 320.556 40.2894 378.167 40.3272C435.778 40.3651 493.389 91.6226 551 91.6226C608.611 91.6226 666.222 40.3651 723.833 40.3272C781.444 40.2894 839.056 91.4714 896.667 91.6226C954.278 91.7739 1011.89 40.8961 1069.5 40.3272C1127.11 39.7583 1184.72 89.4968 1242.33 91.6226C1299.94 93.7485 1357.56 48.2619 1415.17 40.3272C1472.78 32.3926 1530.39 62.0068 1588 91.6226V138.033C1530.39 138.033 1472.78 138.033 1415.17 138.033C1357.56 138.033 1299.94 138.033 1242.33 138.033C1184.72 138.033 1127.11 138.033 1069.5 138.033C1011.89 138.033 954.278 138.033 896.667 138.033C839.056 138.033 781.444 138.033 723.833 138.033C666.222 138.033 608.611 138.033 551 138.033C493.389 138.033 435.778 138.033 378.167 138.033C320.556 138.033 262.944 138.033 205.333 138.033C147.722 138.033 90.1111 138.033 32.5 138.033C-25.1111 138.033 -82.7222 138.033 -140.333 138.033C-197.944 138.033 -255.556 138.033 -313.167 138.033C-370.778 138.033 -428.389 138.033 -486 138.033V91.6226Z" fill="#2F80ED" fill-opacity="0.15"/>
<path d="M-486 98.9502C-428.389 70.7448 -370.778 42.5394 -313.167 50.0974C-255.556 57.6554 -197.944 100.975 -140.333 98.9502C-82.7222 96.9251 -25.1111 49.5553 32.5 50.0974C90.1111 50.6395 147.722 99.0952 205.333 98.9502C262.944 98.8052 320.556 50.0612 378.167 50.0974C435.778 50.1336 493.389 98.9502 551 98.9502C608.611 98.9502 666.222 50.1336 723.833 50.0974C781.444 50.0612 839.056 98.8052 896.667 98.9502C954.278 99.0952 1011.89 50.6395 1069.5 50.0974C1127.11 49.5553 1184.72 96.9251 1242.33 98.9502C1299.94 100.975 1357.56 57.6554 1415.17 50.0974C1472.78 42.5394 1530.39 70.7448 1588 98.9502V138.032C1530.39 138.032 1472.78 138.032 1415.17 138.032C1357.56 138.032 1299.94 138.032 1242.33 138.032C1184.72 138.032 1127.11 138.032 1069.5 138.032C1011.89 138.032 954.278 138.032 896.667 138.032C839.056 138.032 781.444 138.032 723.833 138.032C666.222 138.032 608.611 138.032 551 138.032C493.389 138.032 435.778 138.032 378.167 138.032C320.556 138.032 262.944 138.032 205.333 138.032C147.722 138.032 90.1111 138.032 32.5 138.032C-25.1111 138.032 -82.7222 138.032 -140.333 138.032C-197.944 138.032 -255.556 138.032 -313.167 138.032C-370.778 138.032 -428.389 138.032 -486 138.032V98.9502Z" fill="#2F80ED" fill-opacity="0.15"/>
<path d="M-486 106.276C-428.389 78.071 -370.778 49.8656 -313.167 57.4236C-255.556 64.9816 -197.944 108.301 -140.333 106.276C-82.7222 104.251 -25.1111 56.8815 32.5 57.4236C90.1111 57.9657 147.722 106.421 205.333 106.276C262.944 106.131 320.556 57.3873 378.167 57.4236C435.778 57.4598 493.389 106.276 551 106.276C608.611 106.276 666.222 57.4598 723.833 57.4236C781.444 57.3873 839.056 106.131 896.667 106.276C954.278 106.421 1011.89 57.9657 1069.5 57.4236C1127.11 56.8815 1184.72 104.251 1242.33 106.276C1299.94 108.301 1357.56 64.9816 1415.17 57.4236C1472.78 49.8656 1530.39 78.071 1588 106.276V138.031C1530.39 138.031 1472.78 138.031 1415.17 138.031C1357.56 138.031 1299.94 138.031 1242.33 138.031C1184.72 138.031 1127.11 138.031 1069.5 138.031C1011.89 138.031 954.278 138.031 896.667 138.031C839.056 138.031 781.444 138.031 723.833 138.031C666.222 138.031 608.611 138.031 551 138.031C493.389 138.031 435.778 138.031 378.167 138.031C320.556 138.031 262.944 138.031 205.333 138.031C147.722 138.031 90.1111 138.031 32.5 138.031C-25.1111 138.031 -82.7222 138.031 -140.333 138.031C-197.944 138.031 -255.556 138.031 -313.167 138.031C-370.778 138.031 -428.389 138.031 -486 138.031V106.276Z" fill="#2F80ED" fill-opacity="0.15"/>
<path d="M-486 113.606C-428.389 85.401 -370.778 57.1957 -313.167 64.7537C-255.556 72.3116 -197.944 115.631 -140.333 113.606C-82.7222 111.581 -25.1111 64.2115 32.5 64.7537C90.1111 65.2958 147.722 113.751 205.333 113.606C262.944 113.461 320.556 64.7174 378.167 64.7537C435.778 64.7899 493.389 113.606 551 113.606C608.611 113.606 666.222 64.7899 723.833 64.7537C781.444 64.7174 839.056 113.461 896.667 113.606C954.278 113.751 1011.89 65.2958 1069.5 64.7537C1127.11 64.2115 1184.72 111.581 1242.33 113.606C1299.94 115.631 1357.56 72.3116 1415.17 64.7537C1472.78 57.1957 1530.39 85.401 1588 113.606V138.033C1530.39 138.033 1472.78 138.033 1415.17 138.033C1357.56 138.033 1299.94 138.033 1242.33 138.033C1184.72 138.033 1127.11 138.033 1069.5 138.033C1011.89 138.033 954.278 138.033 896.667 138.033C839.056 138.033 781.444 138.033 723.833 138.033C666.222 138.033 608.611 138.033 551 138.033C493.389 138.033 435.778 138.033 378.167 138.033C320.556 138.033 262.944 138.033 205.333 138.033C147.722 138.033 90.1111 138.033 32.5 138.033C-25.1111 138.033 -82.7222 138.033 -140.333 138.033C-197.944 138.033 -255.556 138.033 -313.167 138.033C-370.778 138.033 -428.389 138.033 -486 138.033V113.606Z" fill="#2F80ED" fill-opacity="0.15"/>
<path d="M-486 123.373C-428.389 93.7568 -370.778 64.1426 -313.167 72.0772C-255.556 80.0119 -197.944 125.499 -140.333 123.373C-82.7222 121.247 -25.1111 71.5083 32.5 72.0772C90.1111 72.6461 147.722 123.524 205.333 123.373C262.944 123.221 320.556 72.0394 378.167 72.0772C435.778 72.1151 493.389 123.373 551 123.373C608.611 123.373 666.222 72.1151 723.833 72.0772C781.444 72.0394 839.056 123.221 896.667 123.373C954.278 123.524 1011.89 72.6461 1069.5 72.0772C1127.11 71.5083 1184.72 121.247 1242.33 123.373C1299.94 125.499 1357.56 80.0119 1415.17 72.0772C1472.78 64.1426 1530.39 93.7568 1588 123.373V138.028C1530.39 138.028 1472.78 138.028 1415.17 138.028C1357.56 138.028 1299.94 138.028 1242.33 138.028C1184.72 138.028 1127.11 138.028 1069.5 138.028C1011.89 138.028 954.278 138.028 896.667 138.028C839.056 138.028 781.444 138.028 723.833 138.028C666.222 138.028 608.611 138.028 551 138.028C493.389 138.028 435.778 138.028 378.167 138.028C320.556 138.028 262.944 138.028 205.333 138.028C147.722 138.028 90.1111 138.028 32.5 138.028C-25.1111 138.028 -82.7222 138.028 -140.333 138.028C-197.944 138.028 -255.556 138.028 -313.167 138.028C-370.778 138.028 -428.389 138.028 -486 138.028V123.373Z" fill="#2F80ED" fill-opacity="0.15"/>
</svg>
