<svg width="332" height="110" viewBox="0 0 332 110" fill="none" xmlns="http://www.w3.org/2000/svg">
<path d="M0 70.4083C9.22222 30.7671 18.4444 -8.87416 27.6667 1.74822C36.8889 12.3706 46.1111 73.2544 55.3333 70.4083C64.5556 67.5622 73.7778 0.986311 83 1.74822C92.2222 2.51012 101.444 70.6121 110.667 70.4083C119.889 70.2045 129.111 1.69728 138.333 1.74822C147.556 1.79916 156.778 70.4083 166 70.4083C175.222 70.4083 184.444 1.79916 193.667 1.74822C202.889 1.69728 212.111 70.2045 221.333 70.4083C230.556 70.6121 239.778 2.51012 249 1.74822C258.222 0.986311 267.444 67.5622 276.667 70.4083C285.889 73.2544 295.111 12.3706 304.333 1.74822C313.556 -8.87416 322.778 30.7671 332 70.4083V193.996C322.778 193.996 313.556 193.996 304.333 193.996C295.111 193.996 285.889 193.996 276.667 193.996C267.444 193.996 258.222 193.996 249 193.996C239.778 193.996 230.556 193.996 221.333 193.996C212.111 193.996 202.889 193.996 193.667 193.996C184.444 193.996 175.222 193.996 166 193.996C156.778 193.996 147.556 193.996 138.333 193.996C129.111 193.996 119.889 193.996 110.667 193.996C101.444 193.996 92.2222 193.996 83 193.996C73.7778 193.996 64.5556 193.996 55.3333 193.996C46.1111 193.996 36.8889 193.996 27.6667 193.996C18.4444 193.996 9.22222 193.996 0 193.996V70.4083Z" fill="#2F80ED" fill-opacity="0.15"/>
<path d="M0 80.7071C9.22222 41.0659 18.4444 1.42467 27.6667 12.047C36.8889 22.6694 46.1111 83.5532 55.3333 80.7071C64.5556 77.861 73.7778 11.2851 83 12.047C92.2222 12.8089 101.444 80.9109 110.667 80.7071C119.889 80.5033 129.111 11.9961 138.333 12.047C147.556 12.098 156.778 80.7071 166 80.7071C175.222 80.7071 184.444 12.098 193.667 12.047C202.889 11.9961 212.111 80.5033 221.333 80.7071C230.556 80.9109 239.778 12.8089 249 12.047C258.222 11.2851 267.444 77.861 276.667 80.7071C285.889 83.5532 295.111 22.6694 304.333 12.047C313.556 1.42467 322.778 41.0659 332 80.7071V193.996C322.778 193.996 313.556 193.996 304.333 193.996C295.111 193.996 285.889 193.996 276.667 193.996C267.444 193.996 258.222 193.996 249 193.996C239.778 193.996 230.556 193.996 221.333 193.996C212.111 193.996 202.889 193.996 193.667 193.996C184.444 193.996 175.222 193.996 166 193.996C156.778 193.996 147.556 193.996 138.333 193.996C129.111 193.996 119.889 193.996 110.667 193.996C101.444 193.996 92.2222 193.996 83 193.996C73.7778 193.996 64.5556 193.996 55.3333 193.996C46.1111 193.996 36.8889 193.996 27.6667 193.996C18.4444 193.996 9.22222 193.996 0 193.996V80.7071Z" fill="#2F80ED" fill-opacity="0.15"/>
<path d="M0 94.4439C9.22222 52.8204 18.4444 11.1991 27.6667 22.3508C36.8889 33.5025 46.1111 97.4317 55.3333 94.4439C64.5556 91.456 73.7778 21.5512 83 22.3508C92.2222 23.1503 101.444 94.6565 110.667 94.4439C119.889 94.2312 129.111 22.2976 138.333 22.3508C147.556 22.4039 156.778 94.4439 166 94.4439C175.222 94.4439 184.444 22.4039 193.667 22.3508C202.889 22.2976 212.111 94.2312 221.333 94.4439C230.556 94.6565 239.778 23.1503 249 22.3508C258.222 21.5512 267.444 91.456 276.667 94.4439C285.889 97.4317 295.111 33.5025 304.333 22.3508C313.556 11.1991 322.778 52.8204 332 94.4439V194.001C322.778 194.001 313.556 194.001 304.333 194.001C295.111 194.001 285.889 194.001 276.667 194.001C267.444 194.001 258.222 194.001 249 194.001C239.778 194.001 230.556 194.001 221.333 194.001C212.111 194.001 202.889 194.001 193.667 194.001C184.444 194.001 175.222 194.001 166 194.001C156.778 194.001 147.556 194.001 138.333 194.001C129.111 194.001 119.889 194.001 110.667 194.001C101.444 194.001 92.2222 194.001 83 194.001C73.7778 194.001 64.5556 194.001 55.3333 194.001C46.1111 194.001 36.8889 194.001 27.6667 194.001C18.4444 194.001 9.22222 194.001 0 194.001V94.4439Z" fill="#2F80ED" fill-opacity="0.15"/>
<path d="M0 104.74C9.22222 65.0991 18.4444 25.4579 27.6667 36.0802C36.8889 46.7026 46.1111 107.586 55.3333 104.74C64.5556 101.894 73.7778 35.3183 83 36.0802C92.2222 36.8422 101.444 104.944 110.667 104.74C119.889 104.537 129.111 36.0293 138.333 36.0802C147.556 36.1312 156.778 104.74 166 104.74C175.222 104.74 184.444 36.1312 193.667 36.0802C202.889 36.0293 212.111 104.537 221.333 104.74C230.556 104.944 239.778 36.8422 249 36.0802C258.222 35.3183 267.444 101.894 276.667 104.74C285.889 107.586 295.111 46.7026 304.333 36.0802C313.556 25.4579 322.778 65.0991 332 104.74V193.998C322.778 193.998 313.556 193.998 304.333 193.998C295.111 193.998 285.889 193.998 276.667 193.998C267.444 193.998 258.222 193.998 249 193.998C239.778 193.998 230.556 193.998 221.333 193.998C212.111 193.998 202.889 193.998 193.667 193.998C184.444 193.998 175.222 193.998 166 193.998C156.778 193.998 147.556 193.998 138.333 193.998C129.111 193.998 119.889 193.998 110.667 193.998C101.444 193.998 92.2222 193.998 83 193.998C73.7778 193.998 64.5556 193.998 55.3333 193.998C46.1111 193.998 36.8889 193.998 27.6667 193.998C18.4444 193.998 9.22222 193.998 0 193.998V104.74Z" fill="#2F80ED" fill-opacity="0.15"/>
<path d="M0 115.037C9.22222 75.396 18.4444 35.7547 27.6667 46.3771C36.8889 56.9995 46.1111 117.883 55.3333 115.037C64.5556 112.191 73.7778 45.6152 83 46.3771C92.2222 47.139 101.444 115.241 110.667 115.037C119.889 114.833 129.111 46.3262 138.333 46.3771C147.556 46.4281 156.778 115.037 166 115.037C175.222 115.037 184.444 46.4281 193.667 46.3771C202.889 46.3262 212.111 114.833 221.333 115.037C230.556 115.241 239.778 47.139 249 46.3771C258.222 45.6152 267.444 112.191 276.667 115.037C285.889 117.883 295.111 56.9995 304.333 46.3771C313.556 35.7547 322.778 75.396 332 115.037V193.996C322.778 193.996 313.556 193.996 304.333 193.996C295.111 193.996 285.889 193.996 276.667 193.996C267.444 193.996 258.222 193.996 249 193.996C239.778 193.996 230.556 193.996 221.333 193.996C212.111 193.996 202.889 193.996 193.667 193.996C184.444 193.996 175.222 193.996 166 193.996C156.778 193.996 147.556 193.996 138.333 193.996C129.111 193.996 119.889 193.996 110.667 193.996C101.444 193.996 92.2222 193.996 83 193.996C73.7778 193.996 64.5556 193.996 55.3333 193.996C46.1111 193.996 36.8889 193.996 27.6667 193.996C18.4444 193.996 9.22222 193.996 0 193.996V115.037Z" fill="#2F80ED" fill-opacity="0.15"/>
<path d="M0 128.772C9.22222 87.1485 18.4444 45.5272 27.6667 56.6789C36.8889 67.8306 46.1111 131.76 55.3333 128.772C64.5556 125.784 73.7778 55.8794 83 56.6789C92.2222 57.4785 101.444 128.985 110.667 128.772C119.889 128.559 129.111 56.6258 138.333 56.6789C147.556 56.7321 156.778 128.772 166 128.772C175.222 128.772 184.444 56.7321 193.667 56.6789C202.889 56.6258 212.111 128.559 221.333 128.772C230.556 128.985 239.778 57.4785 249 56.6789C258.222 55.8794 267.444 125.784 276.667 128.772C285.889 131.76 295.111 67.8306 304.333 56.6789C313.556 45.5272 322.778 87.1485 332 128.772V193.999C322.778 193.999 313.556 193.999 304.333 193.999C295.111 193.999 285.889 193.999 276.667 193.999C267.444 193.999 258.222 193.999 249 193.999C239.778 193.999 230.556 193.999 221.333 193.999C212.111 193.999 202.889 193.999 193.667 193.999C184.444 193.999 175.222 193.999 166 193.999C156.778 193.999 147.556 193.999 138.333 193.999C129.111 193.999 119.889 193.999 110.667 193.999C101.444 193.999 92.2222 193.999 83 193.999C73.7778 193.999 64.5556 193.999 55.3333 193.999C46.1111 193.999 36.8889 193.999 27.6667 193.999C18.4444 193.999 9.22222 193.999 0 193.999V128.772Z" fill="#2F80ED" fill-opacity="0.15"/>
<path d="M0 139.068C9.22222 99.4272 18.4444 59.786 27.6667 70.4084C36.8889 81.0308 46.1111 141.915 55.3333 139.068C64.5556 136.222 73.7778 69.6465 83 70.4084C92.2222 71.1703 101.444 139.272 110.667 139.068C119.889 138.865 129.111 70.3574 138.333 70.4084C147.556 70.4593 156.778 139.068 166 139.068C175.222 139.068 184.444 70.4593 193.667 70.4084C202.889 70.3574 212.111 138.865 221.333 139.068C230.556 139.272 239.778 71.1703 249 70.4084C258.222 69.6465 267.444 136.222 276.667 139.068C285.889 141.915 295.111 81.0308 304.333 70.4084C313.556 59.786 322.778 99.4272 332 139.068V193.997C322.778 193.997 313.556 193.997 304.333 193.997C295.111 193.997 285.889 193.997 276.667 193.997C267.444 193.997 258.222 193.997 249 193.997C239.778 193.997 230.556 193.997 221.333 193.997C212.111 193.997 202.889 193.997 193.667 193.997C184.444 193.997 175.222 193.997 166 193.997C156.778 193.997 147.556 193.997 138.333 193.997C129.111 193.997 119.889 193.997 110.667 193.997C101.444 193.997 92.2222 193.997 83 193.997C73.7778 193.997 64.5556 193.997 55.3333 193.997C46.1111 193.997 36.8889 193.997 27.6667 193.997C18.4444 193.997 9.22222 193.997 0 193.997V139.068Z" fill="#2F80ED" fill-opacity="0.15"/>
<path d="M0 149.367C9.22222 109.726 18.4444 70.0848 27.6667 80.7072C36.8889 91.3296 46.1111 152.213 55.3333 149.367C64.5556 146.521 73.7778 79.9453 83 80.7072C92.2222 81.4691 101.444 149.571 110.667 149.367C119.889 149.164 129.111 80.6563 138.333 80.7072C147.556 80.7581 156.778 149.367 166 149.367C175.222 149.367 184.444 80.7581 193.667 80.7072C202.889 80.6563 212.111 149.164 221.333 149.367C230.556 149.571 239.778 81.4691 249 80.7072C258.222 79.9453 267.444 146.521 276.667 149.367C285.889 152.213 295.111 91.3296 304.333 80.7072C313.556 70.0848 322.778 109.726 332 149.367V193.996C322.778 193.996 313.556 193.996 304.333 193.996C295.111 193.996 285.889 193.996 276.667 193.996C267.444 193.996 258.222 193.996 249 193.996C239.778 193.996 230.556 193.996 221.333 193.996C212.111 193.996 202.889 193.996 193.667 193.996C184.444 193.996 175.222 193.996 166 193.996C156.778 193.996 147.556 193.996 138.333 193.996C129.111 193.996 119.889 193.996 110.667 193.996C101.444 193.996 92.2222 193.996 83 193.996C73.7778 193.996 64.5556 193.996 55.3333 193.996C46.1111 193.996 36.8889 193.996 27.6667 193.996C18.4444 193.996 9.22222 193.996 0 193.996V149.367Z" fill="#2F80ED" fill-opacity="0.15"/>
<path d="M0 159.668C9.22222 120.027 18.4444 80.3856 27.6667 91.008C36.8889 101.63 46.1111 162.514 55.3333 159.668C64.5556 156.822 73.7778 90.2461 83 91.008C92.2222 91.7699 101.444 159.872 110.667 159.668C119.889 159.464 129.111 90.957 138.333 91.008C147.556 91.0589 156.778 159.668 166 159.668C175.222 159.668 184.444 91.0589 193.667 91.008C202.889 90.957 212.111 159.464 221.333 159.668C230.556 159.872 239.778 91.7699 249 91.008C258.222 90.2461 267.444 156.822 276.667 159.668C285.889 162.514 295.111 101.63 304.333 91.008C313.556 80.3856 322.778 120.027 332 159.668V193.998C322.778 193.998 313.556 193.998 304.333 193.998C295.111 193.998 285.889 193.998 276.667 193.998C267.444 193.998 258.222 193.998 249 193.998C239.778 193.998 230.556 193.998 221.333 193.998C212.111 193.998 202.889 193.998 193.667 193.998C184.444 193.998 175.222 193.998 166 193.998C156.778 193.998 147.556 193.998 138.333 193.998C129.111 193.998 119.889 193.998 110.667 193.998C101.444 193.998 92.2222 193.998 83 193.998C73.7778 193.998 64.5556 193.998 55.3333 193.998C46.1111 193.998 36.8889 193.998 27.6667 193.998C18.4444 193.998 9.22222 193.998 0 193.998V159.668Z" fill="#2F80ED" fill-opacity="0.15"/>
<path d="M0 173.395C9.22222 131.772 18.4444 90.1502 27.6667 101.302C36.8889 112.454 46.1111 176.383 55.3333 173.395C64.5556 170.407 73.7778 100.502 83 101.302C92.2222 102.102 101.444 173.608 110.667 173.395C119.889 173.182 129.111 101.249 138.333 101.302C147.556 101.355 156.778 173.395 166 173.395C175.222 173.395 184.444 101.355 193.667 101.302C202.889 101.249 212.111 173.182 221.333 173.395C230.556 173.608 239.778 102.102 249 101.302C258.222 100.502 267.444 170.407 276.667 173.395C285.889 176.383 295.111 112.454 304.333 101.302C313.556 90.1502 322.778 131.772 332 173.395V193.993C322.778 193.993 313.556 193.993 304.333 193.993C295.111 193.993 285.889 193.993 276.667 193.993C267.444 193.993 258.222 193.993 249 193.993C239.778 193.993 230.556 193.993 221.333 193.993C212.111 193.993 202.889 193.993 193.667 193.993C184.444 193.993 175.222 193.993 166 193.993C156.778 193.993 147.556 193.993 138.333 193.993C129.111 193.993 119.889 193.993 110.667 193.993C101.444 193.993 92.2222 193.993 83 193.993C73.7778 193.993 64.5556 193.993 55.3333 193.993C46.1111 193.993 36.8889 193.993 27.6667 193.993C18.4444 193.993 9.22222 193.993 0 193.993V173.395Z" fill="#2F80ED" fill-opacity="0.15"/>
</svg>
